#tb 0: 1/25
#media_type 0: video
#codec_id 0: rawvideo
#dimensions 0: 720x576
#sar 0: 16/15
0,          9,          9,        1,  2488320, 0xe2648b6e
0,         10,         10,        1,  2488320, 0xf5d4fa23
0,         11,         11,        1,  2488320, 0x166f0d58
0,         12,         12,        1,  2488320, 0x4d45a8fd
0,         13,         13,        1,  2488320, 0x44217da8
0,         14,         14,        1,  2488320, 0xad3f2719
0,         15,         15,        1,  2488320, 0x82f5b330
0,         16,         16,        1,  2488320, 0x5e628288
0,         17,         17,        1,  2488320, 0x88c92e48
0,         18,         18,        1,  2488320, 0x0e0d4147
0,         19,         19,        1,  2488320, 0x976064ec
0,         20,         20,        1,  2488320, 0x9e9b8708
0,         21,         21,        1,  2488320, 0x19baf2ae
0,         22,         22,        1,  2488320, 0x2bced12f
0,         23,         23,        1,  2488320, 0x56aaa66e
0,         24,         24,        1,  2488320, 0xee1a7cc0
0,         25,         25,        1,  2488320, 0xa8f39cdb
0,         26,         26,        1,  2488320, 0x6680e537
0,         27,         27,        1,  2488320, 0xc16028a1
0,         28,         28,        1,  2488320, 0xb6b0e1f3
0,         29,         29,        1,  2488320, 0xcccae3d0
0,         30,         30,        1,  2488320, 0x340b3e74
0,         31,         31,        1,  2488320, 0x4929e018
0,         32,         32,        1,  2488320, 0x36f3b509
0,         33,         33,        1,  2488320, 0x02e79433
0,         34,         34,        1,  2488320, 0x03f30f1f
0,         35,         35,        1,  2488320, 0x8b0ad7ae
0,         36,         36,        1,  2488320, 0xc79f24a9
0,         37,         37,        1,  2488320, 0x3b0f32c7
0,         38,         38,        1,  2488320, 0xe1c10a50
